<mxfile host="app.diagrams.net" agent="Mozilla/5.0 (Windows NT 10.0; Win64; x64) AppleWebKit/537.36 (KHTML, like Gecko) Chrome/131.0.0.0 Safari/537.36" version="25.0.3">
  <diagram name="Page-1" id="tJvvNoPdoui7hmkXtmzK">
    <mxGraphModel dx="1050" dy="522" grid="1" gridSize="10" guides="1" tooltips="1" connect="1" arrows="1" fold="1" page="1" pageScale="1" pageWidth="850" pageHeight="1100" math="0" shadow="0">
      <root>
        <mxCell id="0" />
        <mxCell id="1" parent="0" />
        <mxCell id="AQesxRr6Gm1kUcijai8U-1" value="&amp;lt;&amp;lt;executable&amp;gt;&amp;gt;&lt;div&gt;Program.java&lt;/div&gt;" style="rounded=0;whiteSpace=wrap;html=1;" vertex="1" parent="1">
          <mxGeometry x="130" y="230" width="120" height="60" as="geometry" />
        </mxCell>
        <mxCell id="AQesxRr6Gm1kUcijai8U-2" value="&amp;lt;&amp;lt;component&amp;gt;&amp;gt;&lt;div&gt;executables.zip&lt;/div&gt;" style="rounded=0;whiteSpace=wrap;html=1;" vertex="1" parent="1">
          <mxGeometry x="360" y="230" width="120" height="60" as="geometry" />
        </mxCell>
        <mxCell id="AQesxRr6Gm1kUcijai8U-3" value="" style="endArrow=block;html=1;rounded=0;exitX=1;exitY=0.5;exitDx=0;exitDy=0;entryX=0;entryY=0.5;entryDx=0;entryDy=0;dashed=1;endFill=1;" edge="1" parent="1" source="AQesxRr6Gm1kUcijai8U-1" target="AQesxRr6Gm1kUcijai8U-2">
          <mxGeometry width="50" height="50" relative="1" as="geometry">
            <mxPoint x="170" y="390" as="sourcePoint" />
            <mxPoint x="220" y="340" as="targetPoint" />
          </mxGeometry>
        </mxCell>
        <mxCell id="AQesxRr6Gm1kUcijai8U-4" value="HomeComputer" style="shape=cube;whiteSpace=wrap;html=1;boundedLbl=1;backgroundOutline=1;darkOpacity=0.05;darkOpacity2=0.1;direction=east;flipH=1;fontStyle=4;horizontal=1;verticalAlign=top;align=left;" vertex="1" parent="1">
          <mxGeometry x="110" y="400" width="190" height="240" as="geometry" />
        </mxCell>
        <mxCell id="AQesxRr6Gm1kUcijai8U-5" value="&amp;lt;&amp;lt;component&amp;gt;&amp;gt;&lt;div&gt;Web browser&lt;/div&gt;" style="rounded=0;whiteSpace=wrap;html=1;" vertex="1" parent="1">
          <mxGeometry x="130" y="460" width="120" height="60" as="geometry" />
        </mxCell>
        <mxCell id="AQesxRr6Gm1kUcijai8U-6" value="Server" style="shape=cube;whiteSpace=wrap;html=1;boundedLbl=1;backgroundOutline=1;darkOpacity=0.05;darkOpacity2=0.1;direction=east;flipH=1;fontStyle=4;horizontal=1;verticalAlign=top;align=left;" vertex="1" parent="1">
          <mxGeometry x="425" y="400" width="190" height="240" as="geometry" />
        </mxCell>
        <mxCell id="AQesxRr6Gm1kUcijai8U-7" value="&amp;lt;&amp;lt;component&amp;gt;&amp;gt;&lt;div&gt;Web server&lt;/div&gt;" style="rounded=0;whiteSpace=wrap;html=1;" vertex="1" parent="1">
          <mxGeometry x="450" y="460" width="120" height="60" as="geometry" />
        </mxCell>
        <mxCell id="AQesxRr6Gm1kUcijai8U-8" value="" style="endArrow=none;html=1;rounded=0;entryX=0;entryY=0.5;entryDx=0;entryDy=0;" edge="1" parent="1" source="AQesxRr6Gm1kUcijai8U-5" target="AQesxRr6Gm1kUcijai8U-7">
          <mxGeometry width="50" height="50" relative="1" as="geometry">
            <mxPoint x="420" y="540" as="sourcePoint" />
            <mxPoint x="470" y="490" as="targetPoint" />
          </mxGeometry>
        </mxCell>
        <mxCell id="AQesxRr6Gm1kUcijai8U-9" value="&amp;lt;&amp;lt;protocol&amp;gt;&amp;gt;&lt;div&gt;HTTP&lt;/div&gt;" style="text;html=1;align=center;verticalAlign=middle;resizable=0;points=[];autosize=1;strokeColor=none;fillColor=none;" vertex="1" parent="1">
          <mxGeometry x="315" y="454" width="90" height="40" as="geometry" />
        </mxCell>
      </root>
    </mxGraphModel>
  </diagram>
</mxfile>
